<svg xmlns="http://www.w3.org/2000/svg" viewBox="0 0 24 24" width="24" height="24">
  <path fill="#0077B5" d="M19.032 1H4.968C2.784 1 1 2.784 1 4.968v14.064C1 21.216 2.784 23 4.968 23h14.064C21.216 23 23 21.216 23 19.032V4.968C23 2.784 21.216 1 19.032 1zM8.148 19.376H5.097V9.696h3.051v9.68zm-1.526-11c-.984 0-1.782-.798-1.782-1.782s.798-1.782 1.782-1.782 1.782.798 1.782 1.782-.798 1.782-1.782 1.782zm12.902 11h-3.048v-4.708c0-1.138-.021-2.603-1.586-2.603-1.586 0-1.828 1.24-1.828 2.522v4.789h-3.048V9.696h2.922v1.3h.04c.408-.774 1.4-1.586 2.879-1.586 3.078 0 3.647 2.026 3.647 4.66v5.306h.022z" />
</svg>
