<?xml version="1.0" encoding="UTF-8"?>
<!DOCTYPE svg PUBLIC "-//W3C//DTD SVG 1.1//EN" "http://www.w3.org/Graphics/SVG/1.1/DTD/svg11.dtd">
<svg xmlns="http://www.w3.org/2000/svg" version="1.1" width="1024px" height="1024px" style="shape-rendering:geometricPrecision; text-rendering:geometricPrecision; image-rendering:optimizeQuality; fill-rule:evenodd; clip-rule:evenodd" xmlns:xlink="http://www.w3.org/1999/xlink">
<g><path style="opacity:1" fill="#fefefe" d="M -0.5,-0.5 C 340.833,-0.5 682.167,-0.5 1023.5,-0.5C 1023.5,340.833 1023.5,682.167 1023.5,1023.5C 682.167,1023.5 340.833,1023.5 -0.5,1023.5C -0.5,682.167 -0.5,340.833 -0.5,-0.5 Z"/></g>
<g><path style="opacity:1" fill="#104171" d="M 358.5,517.5 C 358.631,516.761 358.464,516.094 358,515.5C 354.976,532.073 349.476,547.74 341.5,562.5C 319.315,596.942 287.648,616.109 246.5,620C 195.907,622.692 156.407,603.192 128,561.5C 109.115,527.418 105.449,491.752 117,454.5C 135.683,407.822 169.85,380.322 219.5,372C 272.502,367.921 313.668,387.755 343,431.5C 358.817,458.404 363.984,487.071 358.5,517.5 Z"/></g>
<g><path style="opacity:1" fill="#011750" d="M 251.5,388.5 C 238.455,387.069 225.455,387.402 212.5,389.5C 211.761,389.631 211.094,389.464 210.5,389C 218.734,387.252 227.067,386.419 235.5,386.5C 242.994,386.161 248.327,386.828 251.5,388.5 Z"/></g>
<g><path style="opacity:1" fill="#fcfdfd" d="M 251.5,388.5 C 279.908,393.035 303.242,406.369 321.5,428.5C 332.269,442.043 339.269,457.376 342.5,474.5C 347.182,499.382 343.849,523.048 332.5,545.5C 329.53,520.744 315.863,505.577 291.5,500C 276.385,497.255 262.385,499.921 249.5,508C 247.812,509.688 246.145,511.355 244.5,513C 252.749,522.668 257.915,533.835 260,546.5C 260.5,564.83 260.667,583.164 260.5,601.5C 256.955,602.046 253.455,602.713 250,603.5C 249.667,586.5 249.333,569.5 249,552.5C 245.453,524.293 229.953,506.793 202.5,500C 168.421,496.762 146.921,511.596 138,544.5C 118.973,501.404 123.973,461.404 153,424.5C 169.161,406.506 188.995,394.839 212.5,389.5C 225.455,387.402 238.455,387.069 251.5,388.5 Z"/></g>
<g><path style="opacity:1" fill="#104170" d="M 188.5,426.5 C 213.823,426.655 225.99,439.322 225,464.5C 218.903,483.134 206.069,491.634 186.5,490C 167.326,483.798 159.16,470.632 162,450.5C 166.815,438.017 175.648,430.017 188.5,426.5 Z"/></g>
<g><path style="opacity:1" fill="#349f67" d="M 275.5,430.5 C 299.431,429.931 311.264,441.598 311,465.5C 306.252,485.297 293.752,493.797 273.5,491C 256.161,484.504 248.995,472.004 252,453.5C 255.779,441.553 263.612,433.886 275.5,430.5 Z"/></g>
<g><path style="opacity:1" fill="#092157" d="M 342.5,474.5 C 339.269,457.376 332.269,442.043 321.5,428.5C 321.435,428.062 321.601,427.728 322,427.5C 333.88,441.233 340.714,456.899 342.5,474.5 Z"/></g>
<g><path style="opacity:1" fill="#104373" d="M 391.5,449.5 C 396.214,449.173 400.88,449.507 405.5,450.5C 407.216,454.711 409.216,458.044 411.5,460.5C 416.392,469.953 421.059,479.62 425.5,489.5C 425.957,490.298 426.624,490.631 427.5,490.5C 434.862,478.125 441.695,464.791 448,450.5C 452.066,449.536 456.233,449.203 460.5,449.5C 460.335,453.182 460.501,456.848 461,460.5C 461.497,457.854 461.664,455.187 461.5,452.5C 462.557,460.319 463.224,468.319 463.5,476.5C 462.797,482.703 462.131,489.036 461.5,495.5C 463.869,503.58 464.869,511.914 464.5,520.5C 460.5,520.5 456.5,520.5 452.5,520.5C 452.943,514.709 452.609,511.042 451.5,509.5C 450.539,507.735 450.205,505.735 450.5,503.5C 451.165,499.849 451.499,496.015 451.5,492C 451.6,485.275 450.934,478.775 449.5,472.5C 448.833,472.833 448.167,473.167 447.5,473.5C 443.392,480.967 439.558,488.633 436,496.5C 435.26,497.749 435.427,498.749 436.5,499.5C 436.068,500.71 435.401,501.71 434.5,502.5C 432.659,504.178 430.992,506.678 429.5,510C 427.5,510.667 425.5,510.667 423.5,510C 417.295,496.748 410.961,484.248 404.5,472.5C 403.833,475.167 403.167,477.833 402.5,480.5C 401.23,488.796 400.563,502.463 400.5,521.5C 396.297,521.924 392.297,521.424 388.5,520C 390.29,507.759 390.623,495.592 389.5,483.5C 390.277,472.174 390.944,460.84 391.5,449.5 Z"/></g>
<g><path style="opacity:1" fill="#1b2f63" d="M 411.5,460.5 C 409.216,458.044 407.216,454.711 405.5,450.5C 400.88,449.507 396.214,449.173 391.5,449.5C 393.397,448.195 395.731,447.529 398.5,447.5C 400.833,447.667 403.167,447.833 405.5,448C 407.912,451.99 409.912,456.157 411.5,460.5 Z"/></g>
<g><path style="opacity:1" fill="#124272" d="M 623.5,479.5 C 619.833,479.5 616.167,479.5 612.5,479.5C 612.334,489.172 612.5,498.839 613,508.5C 613.75,509.126 614.584,509.626 615.5,510C 618.332,510.212 620.998,510.379 623.5,510.5C 624.417,513.758 624.751,517.091 624.5,520.5C 618.862,521.459 613.195,521.626 607.5,521C 606.584,520.722 605.918,520.222 605.5,519.5C 603.512,517.535 602.012,515.202 601,512.5C 600.667,501.5 600.333,490.5 600,479.5C 597.519,477.686 594.685,477.02 591.5,477.5C 591.5,474.833 591.5,472.167 591.5,469.5C 594.059,469.802 596.393,469.468 598.5,468.5C 598.5,467.833 598.5,467.167 598.5,466.5C 599.483,462.702 599.817,458.702 599.5,454.5C 602.833,454.5 606.167,454.5 609.5,454.5C 609.334,459.179 609.501,463.845 610,468.5C 614.737,469.469 619.57,469.803 624.5,469.5C 624.5,472.167 624.5,474.833 624.5,477.5C 620.486,477.334 616.486,477.501 612.5,478C 616.356,478.177 620.023,478.677 623.5,479.5 Z"/></g>
<g><path style="opacity:1" fill="#092158" d="M 461.5,452.5 C 461.664,455.187 461.497,457.854 461,460.5C 460.501,456.848 460.335,453.182 460.5,449.5C 456.233,449.203 452.066,449.536 448,450.5C 441.695,464.791 434.862,478.125 427.5,490.5C 433.61,476.279 440.276,462.279 447.5,448.5C 452.12,447.507 456.786,447.173 461.5,447.5C 461.5,449.167 461.5,450.833 461.5,452.5 Z"/></g>
<g><path style="opacity:1" fill="#104271" d="M 578.5,474.5 C 577.957,474.56 577.624,474.893 577.5,475.5C 578.942,478.05 580.108,480.716 581,483.5C 581.5,495.829 581.667,508.162 581.5,520.5C 577.833,520.5 574.167,520.5 570.5,520.5C 570.667,509.495 570.5,498.495 570,487.5C 569.4,483.96 567.566,481.293 564.5,479.5C 563.893,479.624 563.56,479.957 563.5,480.5C 557.526,478.349 552.526,479.683 548.5,484.5C 548.565,484.062 548.399,483.728 548,483.5C 547.667,484.167 547.333,484.833 547,485.5C 546.5,497.162 546.333,508.829 546.5,520.5C 542.563,520.793 538.73,520.46 535,519.5C 534.5,502.837 534.333,486.17 534.5,469.5C 538.5,469.5 542.5,469.5 546.5,469.5C 546.263,470.791 546.596,471.791 547.5,472.5C 554.804,467.361 562.804,466.194 571.5,469C 574.266,470.371 576.599,472.204 578.5,474.5 Z"/></g>
<g><path style="opacity:1" fill="#104070" d="M 649.5,468.5 C 660.876,465.846 670.542,468.846 678.5,477.5C 677.957,477.56 677.624,477.893 677.5,478.5C 686.873,495.189 683.54,508.689 667.5,519C 667.728,519.399 668.062,519.565 668.5,519.5C 657.947,524.21 647.947,523.043 638.5,516C 636.536,514.549 635.203,512.716 634.5,510.5C 627.541,496.784 629.541,484.618 640.5,474C 644.072,471.363 648.072,469.697 652.5,469C 651.552,468.517 650.552,468.351 649.5,468.5 Z"/></g>
<g><path style="opacity:1" fill="#104272" d="M 707.5,483.5 C 707.19,482.262 706.69,482.262 706,483.5C 705.667,484.5 705.333,485.5 705,486.5C 704.5,497.495 704.333,508.495 704.5,519.5C 700.833,519.5 697.167,519.5 693.5,519.5C 693.5,502.833 693.5,486.167 693.5,469.5C 697.167,469.5 700.833,469.5 704.5,469.5C 704.351,470.552 704.517,471.552 705,472.5C 705.232,471.263 705.732,470.263 706.5,469.5C 706.351,470.552 706.517,471.552 707,472.5C 711.318,467.43 716.485,466.264 722.5,469C 721.833,472.667 721.167,476.333 720.5,480C 717.167,480.333 713.833,480.667 710.5,481C 709.627,482.045 708.627,482.878 707.5,483.5 Z"/></g>
<g><path style="opacity:1" fill="#329d65" d="M 776.5,469.5 C 781.567,468.176 786.734,468.176 792,469.5C 796,480.833 800,492.167 804,503.5C 808.659,492.359 812.825,481.026 816.5,469.5C 821.456,468.506 826.456,468.173 831.5,468.5C 821.833,493.833 812.167,519.167 802.5,544.5C 797.5,544.5 792.5,544.5 787.5,544.5C 790.432,536.043 793.766,527.71 797.5,519.5C 790.475,502.733 783.475,486.066 776.5,469.5 Z"/></g>
<g><path style="opacity:1" fill="#339e66" d="M 859.5,467.5 C 871.083,465.705 879.249,470.038 884,480.5C 885.446,494.093 885.946,507.76 885.5,521.5C 880.833,521.5 876.167,521.5 871.5,521.5C 871.667,509.829 871.5,498.162 871,486.5C 865.434,478.182 859.101,477.515 852,484.5C 851.5,496.829 851.333,509.162 851.5,521.5C 846.5,521.5 841.5,521.5 836.5,521.5C 836.5,503.833 836.5,486.167 836.5,468.5C 841.5,468.5 846.5,468.5 851.5,468.5C 851.343,469.873 851.51,471.207 852,472.5C 854.17,470.177 856.67,468.51 859.5,467.5 Z"/></g>
<g><path style="opacity:1" fill="#01194e" d="M 623.5,479.5 C 620.023,478.677 616.356,478.177 612.5,478C 616.486,477.501 620.486,477.334 624.5,477.5C 624.5,474.833 624.5,472.167 624.5,469.5C 619.57,469.803 614.737,469.469 610,468.5C 609.501,463.845 609.334,459.179 609.5,454.5C 606.167,454.5 602.833,454.5 599.5,454.5C 599.817,458.702 599.483,462.702 598.5,466.5C 598.5,462.167 598.5,457.833 598.5,453.5C 602.833,453.5 607.167,453.5 611.5,453.5C 611.5,458.5 611.5,463.5 611.5,468.5C 616.167,468.5 620.833,468.5 625.5,468.5C 626.08,472.649 625.414,476.316 623.5,479.5 Z"/></g>
<g><path style="opacity:1" fill="#103e6f" d="M 493.5,467.5 C 516.628,465.792 526.961,476.292 524.5,499C 512.486,499.167 500.486,499.667 488.5,500.5C 491.842,509.504 498.175,512.671 507.5,510C 510.548,509.394 513.048,507.894 515,505.5C 518.204,508.369 521.037,511.535 523.5,515C 510.565,524.047 497.231,524.713 483.5,517C 469.941,501.694 470.274,486.694 484.5,472C 487.592,470.454 490.592,468.954 493.5,467.5 Z"/></g>
<g><path style="opacity:1" fill="#06285e" d="M 598.5,468.5 C 596.393,469.468 594.059,469.802 591.5,469.5C 591.5,472.167 591.5,474.833 591.5,477.5C 594.685,477.02 597.519,477.686 600,479.5C 600.333,490.5 600.667,501.5 601,512.5C 602.012,515.202 603.512,517.535 605.5,519.5C 603.983,519.489 602.816,518.823 602,517.5C 600.725,515.283 599.725,512.949 599,510.5C 598.5,500.172 598.334,489.839 598.5,479.5C 595.5,479.5 592.5,479.5 589.5,479.5C 589.5,475.833 589.5,472.167 589.5,468.5C 592.5,468.5 595.5,468.5 598.5,468.5 Z"/></g>
<g><path style="opacity:1" fill="#f0f5f8" d="M 497.5,478.5 C 502.05,477.884 506.05,479.051 509.5,482C 511.202,484.235 512.202,486.735 512.5,489.5C 504.5,489.5 496.5,489.5 488.5,489.5C 489.698,484.307 492.698,480.641 497.5,478.5 Z"/></g>
<g><path style="opacity:1" fill="#f8fafb" d="M 652.5,479.5 C 665.45,479.283 671.283,485.616 670,498.5C 666.471,508.848 659.638,512.015 649.5,508C 639.405,497.184 640.405,487.684 652.5,479.5 Z"/></g>
<g><path style="opacity:1" fill="#081d55" d="M 447.5,473.5 C 444.226,482.318 440.56,490.985 436.5,499.5C 435.427,498.749 435.26,497.749 436,496.5C 439.558,488.633 443.392,480.967 447.5,473.5 Z"/></g>
<g><path style="opacity:1" fill="#0b1f56" d="M 649.5,468.5 C 650.552,468.351 651.552,468.517 652.5,469C 648.072,469.697 644.072,471.363 640.5,474C 629.541,484.618 627.541,496.784 634.5,510.5C 632.254,508.351 630.754,505.684 630,502.5C 626.679,485.361 633.179,474.027 649.5,468.5 Z"/></g>
<g><path style="opacity:1" fill="#339e66" d="M 742.5,446.5 C 748.509,446.334 754.509,446.501 760.5,447C 766.211,447.687 770.878,450.187 774.5,454.5C 772.492,458 769.992,461 767,463.5C 759.873,458.499 752.373,457.666 744.5,461C 741.686,464.936 742.019,468.603 745.5,472C 753.256,475.809 760.922,479.809 768.5,484C 775.115,492.367 776.281,501.534 772,511.5C 763.409,520.611 752.909,523.778 740.5,521C 734.553,519.697 729.553,516.864 725.5,512.5C 727.088,508.59 729.421,505.257 732.5,502.5C 740.006,509.103 748.34,510.603 757.5,507C 761.455,502.796 761.455,498.629 757.5,494.5C 750.293,490.397 742.959,486.563 735.5,483C 723.19,467.813 725.523,455.646 742.5,446.5 Z"/></g>
<g><path style="opacity:1" fill="#329d64" d="M 913.5,467.5 C 923.641,466.117 932.641,468.617 940.5,475C 938.037,478.465 935.204,481.631 932,484.5C 930.681,482.513 928.848,481.346 926.5,481C 917.153,478.424 910.653,481.59 907,490.5C 906.368,505.866 913.535,511.699 928.5,508C 929.966,507.365 931.3,506.531 932.5,505.5C 935.861,507.895 938.528,510.895 940.5,514.5C 931.16,521.497 920.827,523.33 909.5,520C 898.443,514.74 892.777,505.906 892.5,493.5C 893.836,480.119 900.836,471.452 913.5,467.5 Z"/></g>
<g><path style="opacity:1" fill="#00164e" d="M 449.5,472.5 C 450.934,478.775 451.6,485.275 451.5,492C 451.499,496.015 451.165,499.849 450.5,503.5C 450.351,493.159 450.018,482.826 449.5,472.5 Z"/></g>
<g><path style="opacity:1" fill="#10245a" d="M 434.5,502.5 C 433.453,505.596 432.12,508.596 430.5,511.5C 427.833,512.833 425.167,512.833 422.5,511.5C 416.215,498.598 410.215,485.598 404.5,472.5C 410.961,484.248 417.295,496.748 423.5,510C 425.5,510.667 427.5,510.667 429.5,510C 430.992,506.678 432.659,504.178 434.5,502.5 Z"/></g>
<g><path style="opacity:1" fill="#13265b" d="M 578.5,474.5 C 580.866,477.752 582.366,481.419 583,485.5C 583.5,497.495 583.667,509.495 583.5,521.5C 578.833,521.5 574.167,521.5 569.5,521.5C 569.667,510.495 569.5,499.495 569,488.5C 568.389,484.93 566.556,482.263 563.5,480.5C 563.56,479.957 563.893,479.624 564.5,479.5C 567.566,481.293 569.4,483.96 570,487.5C 570.5,498.495 570.667,509.495 570.5,520.5C 574.167,520.5 577.833,520.5 581.5,520.5C 581.667,508.162 581.5,495.829 581,483.5C 580.108,480.716 578.942,478.05 577.5,475.5C 577.624,474.893 577.957,474.56 578.5,474.5 Z"/></g>
<g><path style="opacity:1" fill="#001853" d="M 547.5,472.5 C 546.596,471.791 546.263,470.791 546.5,469.5C 542.5,469.5 538.5,469.5 534.5,469.5C 534.333,486.17 534.5,502.837 535,519.5C 538.73,520.46 542.563,520.793 546.5,520.5C 546.333,508.829 546.5,497.162 547,485.5C 547.333,484.833 547.667,484.167 548,483.5C 548.399,483.728 548.565,484.062 548.5,484.5C 547.54,496.783 547.206,509.117 547.5,521.5C 542.833,521.5 538.167,521.5 533.5,521.5C 533.5,503.833 533.5,486.167 533.5,468.5C 538.167,468.5 542.833,468.5 547.5,468.5C 547.5,469.833 547.5,471.167 547.5,472.5 Z"/></g>
<g><path style="opacity:1" fill="#359f67" d="M 332.5,545.5 C 317.562,575.767 293.562,594.434 260.5,601.5C 260.667,583.164 260.5,564.83 260,546.5C 257.915,533.835 252.749,522.668 244.5,513C 246.145,511.355 247.812,509.688 249.5,508C 262.385,499.921 276.385,497.255 291.5,500C 315.863,505.577 329.53,520.744 332.5,545.5 Z"/></g>
<g><path style="opacity:1" fill="#0c2258" d="M 678.5,477.5 C 687.545,491.921 685.878,505.087 673.5,517C 671.922,518.094 670.255,518.928 668.5,519.5C 668.062,519.565 667.728,519.399 667.5,519C 683.54,508.689 686.873,495.189 677.5,478.5C 677.624,477.893 677.957,477.56 678.5,477.5 Z"/></g>
<g><path style="opacity:1" fill="#0f255c" d="M 402.5,480.5 C 402.699,494.52 402.366,508.52 401.5,522.5C 396.833,522.5 392.167,522.5 387.5,522.5C 388.078,509.495 388.745,496.495 389.5,483.5C 390.623,495.592 390.29,507.759 388.5,520C 392.297,521.424 396.297,521.924 400.5,521.5C 400.563,502.463 401.23,488.796 402.5,480.5 Z"/></g>
<g><path style="opacity:1" fill="#02255a" d="M 706.5,469.5 C 705.732,470.263 705.232,471.263 705,472.5C 704.517,471.552 704.351,470.552 704.5,469.5C 700.833,469.5 697.167,469.5 693.5,469.5C 693.5,486.167 693.5,502.833 693.5,519.5C 697.167,519.5 700.833,519.5 704.5,519.5C 704.333,508.495 704.5,497.495 705,486.5C 705.333,485.5 705.667,484.5 706,483.5C 706.69,482.262 707.19,482.262 707.5,483.5C 706.91,484.766 706.41,486.099 706,487.5C 705.5,498.828 705.333,510.162 705.5,521.5C 700.833,521.5 696.167,521.5 691.5,521.5C 691.5,503.833 691.5,486.167 691.5,468.5C 696.695,468.179 701.695,468.513 706.5,469.5 Z"/></g>
<g><path style="opacity:1" fill="#082359" d="M 463.5,476.5 C 464.674,491.834 465.674,507.167 466.5,522.5C 461.5,522.5 456.5,522.5 451.5,522.5C 451.5,518.167 451.5,513.833 451.5,509.5C 452.609,511.042 452.943,514.709 452.5,520.5C 456.5,520.5 460.5,520.5 464.5,520.5C 464.869,511.914 463.869,503.58 461.5,495.5C 462.131,489.036 462.797,482.703 463.5,476.5 Z"/></g>
<g><path style="opacity:1" fill="#061e56" d="M 358.5,517.5 C 356.16,533.865 350.494,548.865 341.5,562.5C 349.476,547.74 354.976,532.073 358,515.5C 358.464,516.094 358.631,516.761 358.5,517.5 Z"/></g>
</svg>
